<?xml version="1.0" encoding="utf-8"?>
<!-- Generator: Adobe Illustrator 23.0.1, SVG Export Plug-In . SVG Version: 6.00 Build 0)  -->
<svg version="1.1" id="图层_1" xmlns="http://www.w3.org/2000/svg" xmlns:xlink="http://www.w3.org/1999/xlink" x="0px" y="0px"
	 viewBox="0 0 1024 1024" style="enable-background:new 0 0 1024 1024;" xml:space="preserve">
<style type="text/css">
	.st0{fill:url(#SVGID_1_);}
	.st1{fill-rule:evenodd;clip-rule:evenodd;fill:url(#SVGID_2_);}
	.st2{fill-rule:evenodd;clip-rule:evenodd;fill:url(#SVGID_3_);}
</style>
<linearGradient id="SVGID_1_" gradientUnits="userSpaceOnUse" x1="520.9357" y1="1023.9236" x2="503.0643" y2="0.0764">
	<stop  offset="0" style="stop-color:#EA5019"/>
	<stop  offset="0.96" style="stop-color:#F29219"/>
</linearGradient>
<path class="st0" d="M512,0C229.23,0,0,229.23,0,512s229.23,512,512,512s512-229.23,512-512S794.77,0,512,0z M727.04,737.28
	c0,45.24-36.68,81.92-81.92,81.92H378.88c-45.24,0-81.92-36.68-81.92-81.92V286.72c0-45.24,36.68-81.92,81.92-81.92h266.24
	c45.24,0,81.92,36.68,81.92,81.92V737.28z"/>
<linearGradient id="SVGID_2_" gradientUnits="userSpaceOnUse" x1="474.2656" y1="729.687" x2="549.7344" y2="729.687">
	<stop  offset="0" style="stop-color:#EA5019;stop-opacity:0.5"/>
	<stop  offset="0.96" style="stop-color:#F29219"/>
</linearGradient>
<path class="st1" d="M512,691.03c-20.84,0-37.73,17.31-37.73,38.66c0,21.35,16.89,38.66,37.73,38.66s37.73-17.31,37.73-38.66
	C549.73,708.34,532.84,691.03,512,691.03z"/>
<linearGradient id="SVGID_3_" gradientUnits="userSpaceOnUse" x1="423.6063" y1="281.3409" x2="600.3937" y2="281.3409">
	<stop  offset="0" style="stop-color:#EA5019;stop-opacity:0.5"/>
	<stop  offset="0.96" style="stop-color:#F29219"/>
</linearGradient>
<path class="st2" d="M574.71,255.65H449.29c-14.19,0-25.69,11.5-25.69,25.69c0,14.19,11.5,25.69,25.69,25.69h125.42
	c14.19,0,25.69-11.5,25.69-25.69C600.39,267.15,588.89,255.65,574.71,255.65z"/>
</svg>
